<?xml version="1.0" encoding="utf-8"?>
<!-- Generator: Adobe Illustrator 23.1.0, SVG Export Plug-In . SVG Version: 6.00 Build 0)  -->
<svg version="1.1" xmlns="http://www.w3.org/2000/svg" xmlns:xlink="http://www.w3.org/1999/xlink" x="0px" y="0px"
	 viewBox="0 0 65.35 65.24" style="enable-background:new 0 0 65.35 65.24;" xml:space="preserve">
<style type="text/css">
	.st0{display:none;}
	.st1{display:inline;fill:#52ACC2;}
	.st2{fill:#55A5B9;}
	.st3{fill:#FFFFFF;}
	.st4{fill:#20343E;}
	.st5{fill:none;}
</style>
<g id="фон2" class="st0">
	<path class="st1" d="M170.21,159.22h-326c-6.6,0-12-5.4-12-12v-51c0-6.6,5.4-12,12-12h326c6.6,0,12,5.4,12,12v51
		C182.21,153.82,176.81,159.22,170.21,159.22z"/>
</g>
<g id="фон1">
	<g id="XMLID_1_">
		<g>
			<rect x="-167.79" y="84.22" class="st2" width="350" height="75"/>
		</g>
		<g>
		</g>
	</g>
</g>
<g id="Слой_1">
	<g>
		<path class="st3" d="M-104.31,127.56h2.99c0.32-0.85,0.59-1.83,0.8-2.93c0.21-1.11,0.38-2.29,0.5-3.55
			c0.12-1.26,0.22-2.55,0.28-3.89c0.06-1.33,0.09-2.64,0.09-3.91v-6.35h19.21v20.63h2.65v10.39h-5.83v-4.86h-14.88v4.86h-5.83
			V127.56z M-87.16,127.56v-15.1h-6.2v1.57c0,3.04-0.12,5.66-0.36,7.87c-0.24,2.21-0.62,4.09-1.14,5.66H-87.16z"/>
		<path class="st3" d="M-74.22,106.92h12.52c3.07,0,5.29,0.6,6.69,1.81c1.4,1.21,2.09,2.93,2.09,5.18c0,1.35-0.35,2.5-1.05,3.46
			c-0.7,0.96-1.64,1.65-2.84,2.07c1.54,0.35,2.77,1.05,3.66,2.11c0.9,1.06,1.35,2.44,1.35,4.13c0,2.29-0.75,4.1-2.26,5.42
			c-1.51,1.32-3.93,1.98-7.27,1.98h-12.9V106.92z M-63.35,117.35c1.44,0,2.42-0.23,2.93-0.69c0.51-0.46,0.77-1.11,0.77-1.96
			c0-0.87-0.26-1.53-0.77-1.96c-0.51-0.44-1.48-0.65-2.9-0.65h-4.19v5.27H-63.35z M-62.82,127.93c1.62,0,2.74-0.24,3.36-0.73
			c0.62-0.49,0.93-1.24,0.93-2.26s-0.32-1.78-0.95-2.28c-0.64-0.5-1.78-0.75-3.42-0.75h-4.6v6.02H-62.82z"/>
		<path class="st3" d="M-47.87,106.92h6.73v15.7l10.28-15.7h6.17v26.17h-6.73v-15.7l-10.28,15.7h-6.17V106.92z"/>
		<path class="st3" d="M-19.46,106.92H-1.9v5.53h-10.84v20.63h-6.73V106.92z"/>
		<path class="st3" d="M7.45,133.57c-0.27,0-0.54-0.01-0.8-0.04c-0.26-0.03-0.49-0.06-0.69-0.11v-5.57c0.2,0.03,0.4,0.05,0.6,0.08
			c0.2,0.03,0.44,0.04,0.71,0.04c0.55,0,1-0.03,1.35-0.09c0.35-0.06,0.64-0.17,0.86-0.32c0.22-0.15,0.41-0.35,0.56-0.6
			c0.15-0.25,0.29-0.56,0.41-0.93l-10.47-19.1h6.8l6.95,13.27l5.46-13.27h6.58l-8.75,19.81c-0.57,1.27-1.13,2.34-1.68,3.2
			c-0.55,0.86-1.18,1.56-1.91,2.11c-0.72,0.55-1.56,0.94-2.52,1.18C9.95,133.46,8.79,133.57,7.45,133.57z"/>
		<path class="st3" d="M28.76,106.92h6.73v9.94h9.72v-9.94h6.73v26.17H45.2V122.4h-9.72v10.69h-6.73V106.92z"/>
	</g>
	<g>
		<path class="st4" d="M131.01,103.68h8.64v13.3h2.4l10.27-13.3h9.41l-12.96,15.71l13.44,17.88h-10.08l-10.08-14.21h-2.4v14.21
			h-8.64V103.68z"/>
	</g>
	<g>
		<path class="st4" d="M32.62,4.21C16.92,4.21,4.2,16.93,4.2,32.63s12.73,28.42,28.42,28.42s28.42-12.73,28.42-28.42
			S48.32,4.21,32.62,4.21z M32.62,56.2C19.6,56.2,9.05,45.65,9.05,32.63c0-13.02,10.55-23.57,23.57-23.57
			c13.02,0,23.57,10.55,23.57,23.57C56.19,45.65,45.64,56.2,32.62,56.2z"/>
		<path class="st4" d="M32.62,11.11c-11.88,0-21.52,9.63-21.52,21.52c0,11.88,9.63,21.52,21.52,21.52
			c11.88,0,21.52-9.63,21.52-21.52C54.14,20.75,44.5,11.11,32.62,11.11z M32.62,52.94c-11.22,0-20.31-9.09-20.31-20.31
			s9.09-20.31,20.31-20.31s20.31,9.09,20.31,20.31S43.83,52.94,32.62,52.94z"/>
		<polygon class="st4" points="34.83,4.68 29.06,4.68 30.06,0 33.83,0 		"/>
		<polygon class="st4" points="25.63,5.47 20.18,7.35 19.61,2.6 23.17,1.38 		"/>
		<polygon class="st4" points="17.19,9.21 12.64,12.76 10.56,8.45 13.53,6.14 		"/>
		<polygon class="st4" points="10.42,15.49 7.27,20.32 3.9,16.92 5.96,13.77 		"/>
		<polygon class="st4" points="6.06,23.63 4.65,29.22 0.36,27.1 1.28,23.45 		"/>
		<polygon class="st4" points="4.58,32.74 5.05,38.48 0.31,37.87 0,34.12 		"/>
		<polygon class="st4" points="6.13,41.84 8.45,47.12 3.76,48.08 2.25,44.63 		"/>
		<polygon class="st4" points="10.56,49.94 14.46,54.18 10.34,56.61 7.79,53.84 		"/>
		<polygon class="st4" points="17.37,56.17 22.44,58.91 19.34,62.55 16.03,60.75 		"/>
		<polygon class="st4" points="25.84,59.84 31.53,60.79 29.77,65.24 26.06,64.62 		"/>
		<polygon class="st4" points="35.04,60.57 40.73,59.62 40.51,64.4 36.8,65.02 		"/>
		<polygon class="st4" points="43.98,58.27 49.05,55.52 50.4,60.11 47.09,61.9 		"/>
		<polygon class="st4" points="51.69,53.19 55.6,48.95 58.36,52.85 55.81,55.62 		"/>
		<polygon class="st4" points="57.33,45.88 59.65,40.6 63.53,43.4 62.02,46.85 		"/>
		<polygon class="st4" points="60.3,37.14 60.77,31.39 65.35,32.78 65.04,36.53 		"/>
		<polygon class="st4" points="60.26,27.91 58.85,22.32 63.62,22.14 64.55,25.79 		"/>
		<polygon class="st4" points="57.23,19.19 54.08,14.36 58.54,12.64 60.6,15.79 		"/>
		<polygon class="st4" points="51.53,11.93 46.98,8.39 50.64,5.31 53.62,7.62 		"/>
		<polygon class="st4" points="43.78,6.91 38.33,5.04 40.8,0.94 44.36,2.16 		"/>
	</g>
	<circle class="st5" cx="91.87" cy="121.73" r="5.05"/>
	<path class="st3" d="M43.34,149.97c-9.48,8.53-10.25,23.13-1.72,32.6c8.53,9.48,23.13,10.25,32.6,1.72s10.25-23.13,1.72-32.6
		C67.41,142.22,52.82,141.44,43.34,149.97z M70.77,180.47c-7.37,6.63-18.71,6.03-25.33-1.34s-6.03-18.71,1.34-25.33
		c7.37-6.63,18.71-6.03,25.33,1.34C78.74,162.5,78.14,173.85,70.77,180.47z"/>
	<path class="st3" d="M47.89,155.04c-6.68,6.01-7.23,16.3-1.22,22.98c6.01,6.68,16.3,7.23,22.98,1.22
		c6.68-6.01,7.23-16.3,1.22-22.98C64.86,149.57,54.57,149.02,47.89,155.04z M68.94,178.43c-6.24,5.61-15.84,5.1-21.45-1.13
		c-5.61-6.24-5.1-15.84,1.13-21.45c6.24-5.61,15.84-5.1,21.45,1.13C75.68,163.21,75.17,172.82,68.94,178.43z"/>
	<polygon class="st3" points="45.81,148.04 41.53,151.89 39.14,147.75 41.94,145.23 	"/>
	<polygon class="st3" points="38.81,155.56 36.62,160.89 32.68,158.19 34.1,154.71 	"/>
	<polygon class="st3" points="35.76,165.37 36.11,171.12 31.38,170.4 31.15,166.64 	"/>
	<polygon class="st3" points="37.27,175.53 40.08,180.56 35.51,181.96 33.68,178.68 	"/>
	<polygon class="st3" points="43.04,184.02 47.76,187.34 44.25,190.59 41.17,188.42 	"/>
	<polygon class="st3" points="51.93,189.18 57.62,190.12 55.86,194.57 52.15,193.96 	"/>
	<polygon class="st3" points="62.17,189.97 67.71,188.35 68.06,193.12 64.44,194.17 	"/>
	<polygon class="st3" points="71.74,186.23 76.03,182.38 78.41,186.52 75.61,189.04 	"/>
	<polygon class="st3" points="78.74,178.72 80.93,173.38 84.88,176.08 83.45,179.57 	"/>
	<polygon class="st3" points="81.79,168.91 81.45,163.15 86.18,163.87 86.4,167.63 	"/>
	<polygon class="st3" points="80.28,158.74 77.47,153.71 82.05,152.31 83.88,155.6 	"/>
	<polygon class="st3" points="74.51,150.25 69.8,146.93 73.31,143.68 76.38,145.85 	"/>
	<polygon class="st3" points="65.62,145.09 59.94,144.15 61.69,139.7 65.4,140.32 	"/>
	<polygon class="st3" points="55.38,144.31 49.85,145.92 49.5,141.15 53.11,140.1 	"/>
	<g>
		<path class="st3" d="M112.83,30.41c-7.86,10.04-6.09,24.55,3.95,32.41s24.55,6.09,32.41-3.95s6.09-24.55-3.95-32.41
			S120.69,20.37,112.83,30.41z M145.13,55.7c-6.11,7.8-17.38,9.17-25.18,3.07s-9.17-17.38-3.07-25.18s17.38-9.17,25.18-3.07
			S151.24,47.9,145.13,55.7z"/>
		<path class="st3" d="M118.19,34.61c-5.54,7.08-4.3,17.31,2.78,22.85c7.08,5.54,17.31,4.3,22.85-2.78s4.3-17.31-2.78-22.85
			C133.96,26.29,123.73,27.53,118.19,34.61z M142.97,54.01c-5.17,6.61-14.72,7.77-21.32,2.6c-6.61-5.17-7.77-14.72-2.6-21.32
			c5.17-6.61,14.72-7.77,21.32-2.6C146.98,37.85,148.14,47.4,142.97,54.01z"/>
		<polygon class="st3" points="114.93,28.08 111.38,32.62 108.31,28.95 110.63,25.98 		"/>
		<polygon class="st3" points="109.34,36.69 108.11,42.33 103.75,40.35 104.56,36.67 		"/>
		<polygon class="st3" points="108.03,46.88 109.37,52.49 104.59,52.6 103.72,48.94 		"/>
		<polygon class="st3" points="111.28,56.63 114.92,61.1 110.66,63.28 108.28,60.35 		"/>
		<polygon class="st3" points="118.44,64 123.65,66.46 120.76,70.26 117.35,68.66 		"/>
		<polygon class="st3" points="128.08,67.54 133.84,67.49 132.89,72.17 129.12,72.21 		"/>
		<polygon class="st3" points="138.3,66.54 143.47,63.99 144.64,68.63 141.27,70.29 		"/>
		<polygon class="st3" points="147.08,61.21 150.64,56.67 153.7,60.34 151.38,63.3 		"/>
		<polygon class="st3" points="152.68,52.59 153.91,46.96 158.26,48.94 157.46,52.61 		"/>
		<polygon class="st3" points="153.98,42.4 152.65,36.79 157.43,36.69 158.3,40.35 		"/>
		<polygon class="st3" points="150.73,32.66 147.1,28.18 151.36,26.01 153.73,28.93 		"/>
		<polygon class="st3" points="143.58,25.29 138.36,22.83 141.26,19.03 144.66,20.63 		"/>
		<polygon class="st3" points="133.93,21.75 128.17,21.8 129.13,17.11 132.89,17.08 		"/>
		<polygon class="st3" points="123.71,22.75 118.54,25.29 117.37,20.66 120.75,18.99 		"/>
	</g>
	<g>
		<path class="st4" d="M152.33,98.22h-1.87v-0.67H155v0.67h-1.88v5.47h-0.8V98.22z"/>
		<path class="st4" d="M160.79,100.99c-0.04-0.86-0.1-1.89-0.09-2.65h-0.03c-0.21,0.72-0.46,1.48-0.77,2.33l-1.08,2.98h-0.6
			l-0.99-2.92c-0.29-0.87-0.54-1.66-0.71-2.39h-0.02c-0.02,0.77-0.06,1.79-0.12,2.71l-0.16,2.63h-0.76l0.43-6.14h1.01l1.05,2.97
			c0.25,0.76,0.46,1.43,0.62,2.07h0.03c0.15-0.62,0.37-1.29,0.65-2.07l1.09-2.97h1.01l0.38,6.14h-0.77L160.79,100.99z"/>
	</g>
</g>
</svg>
