<svg width="35" height="35" viewBox="0 0 35 35" fill="none" xmlns="http://www.w3.org/2000/svg">
<path fill-rule="evenodd" clip-rule="evenodd" d="M21.7422 11.6667C23.4392 12.0909 24.1816 13.0455 25.0301 14.5303H21.7422V11.6667ZM9.33311 21C9.33311 21.3182 9.54523 21.6364 9.96947 21.6364H11.1361C11.3483 22.697 12.3028 23.4394 13.3634 23.4394C14.424 23.4394 15.3786 22.697 15.5907 21.6364H21.6361C21.8483 22.697 22.8028 23.4394 23.8634 23.4394C24.924 23.4394 25.8786 22.697 26.0907 21.6364H27.1513C27.4695 21.6364 27.7877 21.4242 27.7877 21V17.5C27.7877 15.803 25.9846 15.697 25.9846 15.697H21.2119C20.8937 15.697 20.5755 15.4849 20.5755 15.0606V11.5606H9.86341C9.54523 11.5606 9.22705 11.7727 9.22705 12.197V13.4697V21H9.33311ZM24.4998 20.3636C24.924 20.7879 24.924 21.4242 24.4998 21.8485C23.8634 22.4849 22.6967 22.0606 22.6967 21.1061C22.6967 20.2576 23.8634 19.7273 24.4998 20.3636ZM14.1058 20.3636C14.5301 20.7879 14.5301 21.4242 14.1058 21.8485C13.4695 22.4849 12.3028 22.0606 12.3028 21.1061C12.1967 20.2576 13.3634 19.7273 14.1058 20.3636Z" fill="#55A5B9"/>
<path d="M17.5 0C7.84848 0 0 7.84848 0 17.5C0 27.1515 7.84848 35 17.5 35C27.1515 35 35 27.1515 35 17.5C35 7.84848 27.1515 0 17.5 0ZM17.5 34.2576C8.27273 34.2576 0.742424 26.7273 0.742424 17.5C0.742424 8.27273 8.27273 0.742424 17.5 0.742424C26.7273 0.742424 34.2576 8.27273 34.2576 17.5C34.2576 26.7273 26.7273 34.2576 17.5 34.2576Z" fill="#20343E"/>
</svg>
