<svg width="220" height="48" viewBox="0 0 220 48" fill="none" xmlns="http://www.w3.org/2000/svg">
<rect width="220" height="48" fill="#606060"/>
<g clip-path="url(#clip0)">
<path d="M220 0H0V48H220V0Z" fill="#55A5B9"/>
<path d="M12.5776 28.211H14.9914C15.2554 27.5134 15.4691 26.7134 15.6388 25.7982C15.8085 24.8894 15.9468 23.9166 16.0474 22.8798C16.1479 21.8494 16.2234 20.7806 16.2736 19.6862C16.3239 18.5918 16.3491 17.523 16.3491 16.4734V11.251H31.8559V28.211H33.9994V36.7486H29.2914V32.755H17.2856V36.7486H12.5776V28.211V28.211ZM26.4251 28.211V15.795H21.4154V17.0878C21.4154 19.5838 21.3211 21.7406 21.1262 23.5518C20.9376 25.363 20.6296 26.9182 20.2085 28.2046H26.4251V28.211Z" fill="white"/>
<path d="M36.8657 11.251H46.9732C49.4497 11.251 51.2474 11.7502 52.3726 12.7422C53.4977 13.7342 54.0634 15.155 54.0634 16.9982C54.0634 18.1054 53.7806 19.0526 53.2212 19.8398C52.6554 20.627 51.8949 21.1966 50.9269 21.5422C52.1714 21.8302 53.1583 22.4062 53.8812 23.2766C54.604 24.147 54.9686 25.2798 54.9686 26.6686C54.9686 28.5502 54.3589 30.035 53.1457 31.123C51.9263 32.211 49.9714 32.7486 47.2749 32.7486H36.8657V11.251ZM45.6469 19.8206C46.816 19.8206 47.6017 19.6286 48.0166 19.251C48.4314 18.8734 48.6326 18.3358 48.6326 17.6382C48.6326 16.9214 48.4252 16.3838 48.0166 16.0254C47.6017 15.667 46.8223 15.4878 45.6783 15.4878H42.2966V19.8206H45.6469ZM46.068 28.5182C47.3754 28.5182 48.2806 28.3198 48.7834 27.9166C49.2863 27.5198 49.5377 26.899 49.5377 26.0606C49.5377 25.2222 49.28 24.595 48.7709 24.1854C48.2554 23.7758 47.3377 23.571 46.0114 23.571H42.3029V28.5182H46.068Z" fill="white"/>
<path d="M58.1367 11.251H63.5676V24.1534L71.8647 11.251H76.843V32.755H71.4121V19.8526L63.115 32.755H58.1367V11.251Z" fill="white"/>
<path d="M81.0669 11.251H95.2475V15.795H86.4978V32.755H81.0669V11.251V11.251Z" fill="white"/>
<path d="M102.79 33.1518C102.57 33.1518 102.35 33.139 102.143 33.1198C101.929 33.1006 101.747 33.0686 101.583 33.0302V28.4542C101.747 28.4734 101.904 28.499 102.067 28.5182C102.231 28.5374 102.419 28.5502 102.639 28.5502C103.079 28.5502 103.444 28.5246 103.727 28.4734C104.01 28.4222 104.242 28.3326 104.418 28.211C104.6 28.0894 104.751 27.923 104.871 27.7182C104.99 27.5134 105.103 27.2574 105.204 26.9502L96.7559 11.251H102.25L107.863 22.1566L112.269 11.251H117.58L110.522 27.5326C110.056 28.5758 109.604 29.4526 109.164 30.1566C108.724 30.8606 108.208 31.443 107.624 31.891C107.039 32.3454 106.36 32.6654 105.587 32.8574C104.802 33.0558 103.871 33.1518 102.79 33.1518Z" fill="white"/>
<path d="M119.988 11.251H125.419V19.4238H133.263V11.251H138.694V32.755H133.263V23.9678H125.419V32.755H119.988V11.251Z" fill="white"/>
<path d="M187.817 12.4541H193.248V20.9661H194.757L201.212 12.4541H207.127L198.981 22.5085L207.429 33.9581H201.093L194.757 24.8637H193.248V33.9581H187.817V12.4541V12.4541Z" fill="#20343E"/>
<path d="M163.221 5.81738C153.353 5.81738 145.357 13.9646 145.357 24.0062C145.357 34.0478 153.359 42.195 163.221 42.195C173.09 42.195 181.085 34.0478 181.085 24.0062C181.085 13.9646 173.09 5.81738 163.221 5.81738ZM163.221 39.091C155.037 39.091 148.406 32.339 148.406 24.0062C148.406 15.6734 155.037 8.92138 163.221 8.92138C171.405 8.92138 178.037 15.6734 178.037 24.0062C178.037 32.339 171.399 39.091 163.221 39.091Z" fill="#20343E"/>
<path d="M163.221 10.2334C155.753 10.2334 149.694 16.3966 149.694 24.0062C149.694 31.6094 155.747 37.779 163.221 37.779C170.688 37.779 176.748 31.6158 176.748 24.0062C176.741 16.403 170.688 10.2334 163.221 10.2334ZM163.221 37.0046C156.168 37.0046 150.454 31.187 150.454 24.0062C150.454 16.8254 156.168 11.0078 163.221 11.0078C170.273 11.0078 175.987 16.8254 175.987 24.0062C175.987 31.187 170.267 37.0046 163.221 37.0046Z" fill="#20343E"/>
<path d="M164.61 6.11825H160.983L161.612 3.12305H163.982L164.61 6.11825Z" fill="#20343E"/>
<path d="M158.827 6.63035L155.402 7.82715L155.037 4.78715L157.275 4.00635L158.827 6.63035Z" fill="#20343E"/>
<path d="M153.522 9.02369L150.662 11.2893L149.355 8.53089L151.222 7.05249L153.522 9.02369Z" fill="#20343E"/>
<path d="M149.267 13.0366L147.287 16.1278L145.168 13.9582L146.463 11.9358L149.267 13.0366Z" fill="#20343E"/>
<path d="M146.526 18.2463L145.634 21.8239L142.943 20.4671L143.522 18.1311L146.526 18.2463Z" fill="#20343E"/>
<path d="M145.596 24.0769L145.891 27.7569L142.912 27.3601L142.717 24.9601L145.596 24.0769Z" fill="#20343E"/>
<path d="M146.57 29.9006L148.028 33.2798L145.08 33.8942L144.131 31.6862L146.57 29.9006Z" fill="#20343E"/>
<path d="M149.349 35.0847L151.806 37.7983L149.217 39.3535L147.614 37.5807L149.349 35.0847Z" fill="#20343E"/>
<path d="M153.636 39.0718L156.823 40.8254L154.874 43.1549L152.787 42.0094L153.636 39.0718Z" fill="#20343E"/>
<path d="M158.959 41.4207L162.529 42.0287L161.429 44.8767L159.091 44.4799L158.959 41.4207Z" fill="#20343E"/>
<path d="M164.742 41.888L168.319 41.28L168.18 44.3392L165.848 44.736L164.742 41.888Z" fill="#20343E"/>
<path d="M170.361 40.4158L173.548 38.6558L174.397 41.5934L172.316 42.7454L170.361 40.4158Z" fill="#20343E"/>
<path d="M175.208 37.1648L177.659 34.4512L179.401 36.9472L177.798 38.72L175.208 37.1648Z" fill="#20343E"/>
<path d="M178.753 32.4861L180.211 29.1069L182.65 30.8989L181.695 33.1069L178.753 32.4861Z" fill="#20343E"/>
<path d="M180.614 26.8926L180.915 23.219L183.794 24.1022L183.599 26.5022L180.614 26.8926Z" fill="#20343E"/>
<path d="M180.595 20.9853L179.702 17.4077L182.707 17.2925L183.291 19.6285L180.595 20.9853Z" fill="#20343E"/>
<path d="M178.69 15.4046L176.704 12.3134L179.514 11.2126L180.809 13.235L178.69 15.4046Z" fill="#20343E"/>
<path d="M175.107 10.7583L172.247 8.49269L174.548 6.52148L176.415 7.99989L175.107 10.7583Z" fill="#20343E"/>
<path d="M170.236 7.54541L166.811 6.34861L168.357 3.72461L170.595 4.50541L170.236 7.54541Z" fill="#20343E"/>
<path d="M132.71 42.08C126.751 47.5392 126.267 56.8832 131.629 62.944C136.991 69.0048 146.168 69.504 152.121 64.0448C158.08 58.5856 158.564 49.2416 153.202 43.1808C147.846 37.1136 138.669 36.6208 132.71 42.08ZM149.958 61.6C145.326 65.8432 138.198 65.4592 134.037 60.7424C129.869 56.0256 130.246 48.768 134.879 44.5312C139.512 40.288 146.64 40.672 150.801 45.3888C154.962 50.0992 154.585 57.3568 149.958 61.6Z" fill="white"/>
<path d="M135.577 45.3184C131.378 49.1648 131.032 55.7504 134.81 60.0256C138.588 64.3008 145.056 64.6528 149.254 60.8064C153.453 56.96 153.799 50.3744 150.021 46.0992C146.244 41.824 139.776 41.472 135.577 45.3184ZM148.802 60.2944C144.88 63.8848 138.845 63.5584 135.319 59.5712C131.793 55.5776 132.113 49.4336 136.029 45.8432C139.952 42.2528 145.986 42.5792 149.512 46.5664C153.038 50.5536 152.724 56.704 148.802 60.2944Z" fill="white"/>
<path d="M134.269 40.8445L131.573 43.3085L130.077 40.6589L131.83 39.0461L134.269 40.8445Z" fill="white"/>
<path d="M129.863 45.6509L128.493 49.0685L126.01 47.3405L126.909 45.1069L129.863 45.6509Z" fill="white"/>
<path d="M155.929 47.6926L154.169 44.4734L157.042 43.5774L158.192 45.6766L155.929 47.6926Z" fill="white"/>
<path d="M152.303 42.2526L149.342 40.1278L151.549 38.0542L153.485 39.443L152.303 42.2526Z" fill="white"/>
<path d="M146.721 38.9567L143.145 38.3487L144.251 35.5071L146.583 35.8975L146.721 38.9567Z" fill="white"/>
<path d="M140.285 38.4512L136.803 39.488L136.583 36.4352L138.858 35.7568L140.285 38.4512Z" fill="white"/>
<path d="M167.577 -17.4206C162.636 -10.995 163.749 -1.70862 170.06 3.32178C176.371 8.35218 185.491 7.21938 190.432 0.793784C195.372 -5.63182 194.26 -14.9182 187.949 -19.9486C181.638 -24.979 172.517 -23.8462 167.577 -17.4206ZM187.886 -1.23501C184.045 3.75698 176.961 4.63378 172.059 0.729785C167.156 -3.18061 166.295 -10.3934 170.129 -15.3854C173.969 -20.3774 181.053 -21.2542 185.956 -17.3502C190.859 -13.4462 191.72 -6.22701 187.886 -1.23501Z" fill="white"/>
<path d="M170.953 -14.7328C167.471 -10.2016 168.25 -3.65443 172.7 -0.108829C177.151 3.43677 183.581 2.64317 187.063 -1.88803C190.546 -6.41923 189.766 -12.9664 185.316 -16.512C180.866 -20.064 174.435 -19.264 170.953 -14.7328ZM186.523 -2.32323C183.273 1.90717 177.27 2.64957 173.122 -0.659229C168.967 -3.96803 168.238 -10.08 171.487 -14.304C174.737 -18.5344 180.74 -19.2768 184.888 -15.968C189.043 -12.6592 189.772 -6.54723 186.523 -2.32323Z" fill="white"/>
<path d="M166.609 -0.640137L168.891 2.22066L166.213 3.60946L164.723 1.74066L166.609 -0.640137Z" fill="white"/>
<path d="M171.104 4.07666L174.385 5.64466L172.562 8.08305L170.425 7.05266L171.104 4.07666Z" fill="white"/>
<path d="M177.169 6.33595L180.79 6.30396L180.186 9.30556L177.823 9.32476L177.169 6.33595Z" fill="white"/>
<path d="M183.593 5.70231L186.843 4.07031L187.578 7.03992L185.454 8.10232L183.593 5.70231Z" fill="white"/>
<path d="M189.112 2.28451L191.344 -0.621094L193.273 1.72771L191.815 3.62851L189.112 2.28451Z" fill="white"/>
<path d="M201.218 8.95443H200.042V8.52563H202.896V8.95443H201.714V12.4552H201.212V8.95443H201.218Z" fill="#20343E"/>
<path d="M206.542 10.7327C206.517 10.1823 206.479 9.52306 206.485 9.03666H206.467C206.335 9.49746 206.178 9.98386 205.983 10.5279L205.304 12.4351H204.927L204.304 10.5663C204.122 10.0095 203.965 9.50386 203.858 9.03666H203.845C203.833 9.52946 203.808 10.1823 203.77 10.7711L203.657 12.4543H203.179L203.449 8.52466H204.084L204.744 10.4255C204.902 10.9119 205.033 11.3407 205.134 11.7503H205.153C205.247 11.3535 205.385 10.9247 205.561 10.4255L206.247 8.52466H206.882L207.12 12.4543H206.636L206.542 10.7327Z" fill="#20343E"/>
</g>
<defs>
<clipPath id="clip0">
<rect width="220" height="48" fill="white"/>
</clipPath>
</defs>
</svg>
