<?xml version="1.0" encoding="utf-8"?>
<!-- Generator: Adobe Illustrator 23.1.0, SVG Export Plug-In . SVG Version: 6.00 Build 0)  -->
<svg version="1.1" xmlns="http://www.w3.org/2000/svg" xmlns:xlink="http://www.w3.org/1999/xlink" x="0px" y="0px"
	 viewBox="0 0 65.35 65.24" style="enable-background:new 0 0 65.35 65.24;" xml:space="preserve">
<style type="text/css">
	.st0{fill:#52ACC2;}
	.st1{fill:#55A5B9;}
	.st2{display:none;}
	.st3{display:inline;}
	.st4{fill:#FFFFFF;}
	.st5{fill:none;}
	.st6{display:none;fill:#FFFFFF;}
	.st7{display:inline;fill:#20343E;}
</style>
<g id="фон2">
	<path class="st0" d="M129.5-36.87h-326c-6.6,0-12-5.4-12-12v-51c0-6.6,5.4-12,12-12h326c6.6,0,12,5.4,12,12v51
		C141.5-42.27,136.1-36.87,129.5-36.87z"/>
</g>
<g id="фон1">
	<g id="XMLID_1_">
		<g>
			<rect x="-208.5" y="-111.87" class="st1" width="350" height="75"/>
		</g>
		<g>
		</g>
	</g>
</g>
<g id="Слой_1">
	<g class="st2">
		<g class="st3">
			<path class="st4" d="M-199.09,2.15h3.84c0.42-1.09,0.76-2.34,1.03-3.77c0.27-1.42,0.49-2.94,0.65-4.56
				c0.16-1.61,0.28-3.28,0.36-4.99c0.08-1.71,0.12-3.38,0.12-5.02v-8.16h24.67v26.5h3.41V15.5h-7.49V9.26h-19.1v6.24h-7.49V2.15z
				 M-177.06,2.15v-19.39h-7.97v2.02c0,3.9-0.15,7.27-0.46,10.1c-0.3,2.83-0.79,5.26-1.46,7.27H-177.06z"/>
			<path class="st4" d="M-160.45-24.34h16.08c3.94,0,6.8,0.78,8.59,2.33c1.79,1.55,2.69,3.77,2.69,6.65c0,1.73-0.45,3.21-1.34,4.44
				c-0.9,1.23-2.11,2.12-3.65,2.66c1.98,0.45,3.55,1.35,4.7,2.71c1.15,1.36,1.73,3.13,1.73,5.3c0,2.94-0.97,5.26-2.9,6.96
				c-1.94,1.7-5.05,2.54-9.34,2.54h-16.56V-24.34z M-146.48-10.95c1.86,0,3.11-0.3,3.77-0.89c0.66-0.59,0.98-1.43,0.98-2.52
				c0-1.12-0.33-1.96-0.98-2.52c-0.66-0.56-1.9-0.84-3.72-0.84h-5.38v6.77H-146.48z M-145.81,2.63c2.08,0,3.52-0.31,4.32-0.94
				c0.8-0.62,1.2-1.59,1.2-2.9s-0.41-2.29-1.22-2.93c-0.82-0.64-2.28-0.96-4.39-0.96h-5.9v7.73H-145.81z"/>
			<path class="st4" d="M-126.61-24.34h8.64v20.16l13.2-20.16h7.92v33.6h-8.64V-10.9l-13.2,20.16h-7.92V-24.34z"/>
			<path class="st4" d="M-90.13-24.34h22.56v7.1h-13.92v26.5h-8.64V-24.34z"/>
			<path class="st4" d="M-55.57,9.88c-0.35,0-0.7-0.02-1.03-0.05c-0.34-0.03-0.63-0.08-0.89-0.14V2.54c0.26,0.03,0.51,0.07,0.77,0.1
				c0.26,0.03,0.56,0.05,0.91,0.05c0.7,0,1.28-0.04,1.73-0.12c0.45-0.08,0.82-0.22,1.1-0.41c0.29-0.19,0.53-0.45,0.72-0.77
				c0.19-0.32,0.37-0.72,0.53-1.2l-13.44-24.53h8.74l8.93,17.04l7.01-17.04h8.45L-43.28,1.1c-0.74,1.63-1.46,3-2.16,4.1
				c-0.7,1.1-1.52,2.01-2.45,2.71c-0.93,0.71-2.01,1.21-3.24,1.51C-52.36,9.73-53.84,9.88-55.57,9.88z"/>
			<path class="st4" d="M-28.21-24.34h8.64v12.77h12.48v-12.77h8.64v33.6h-8.64V-4.47h-12.48V9.26h-8.64V-24.34z"/>
		</g>
		<g class="st3">
			<path class="st4" d="M79.71-22.46h8.64v13.3h2.4l10.27-13.3h9.41L97.46-6.74l13.44,17.88h-10.08L90.75-3.07h-2.4v14.21h-8.64
				V-22.46z"/>
		</g>
	</g>
	<g>
		<path class="st4" d="M32.62,4.21C16.92,4.21,4.2,16.93,4.2,32.63s12.73,28.42,28.42,28.42s28.42-12.73,28.42-28.42
			S48.32,4.21,32.62,4.21z M32.62,56.2C19.6,56.2,9.05,45.65,9.05,32.63c0-13.02,10.55-23.57,23.57-23.57
			c13.02,0,23.57,10.55,23.57,23.57C56.19,45.65,45.64,56.2,32.62,56.2z"/>
		<path class="st4" d="M32.62,11.11c-11.88,0-21.52,9.63-21.52,21.52c0,11.88,9.63,21.52,21.52,21.52
			c11.88,0,21.52-9.63,21.52-21.52C54.14,20.75,44.5,11.11,32.62,11.11z M32.62,52.94c-11.22,0-20.31-9.09-20.31-20.31
			s9.09-20.31,20.31-20.31s20.31,9.09,20.31,20.31S43.83,52.94,32.62,52.94z"/>
		<polygon class="st4" points="34.83,4.68 29.06,4.68 30.06,0 33.83,0 		"/>
		<polygon class="st4" points="25.63,5.47 20.18,7.35 19.61,2.6 23.17,1.38 		"/>
		<polygon class="st4" points="17.19,9.21 12.64,12.76 10.56,8.45 13.53,6.14 		"/>
		<polygon class="st4" points="10.42,15.49 7.27,20.32 3.9,16.92 5.96,13.77 		"/>
		<polygon class="st4" points="6.06,23.63 4.65,29.22 0.36,27.1 1.28,23.45 		"/>
		<polygon class="st4" points="4.58,32.74 5.05,38.48 0.31,37.87 0,34.12 		"/>
		<polygon class="st4" points="6.13,41.84 8.45,47.12 3.76,48.08 2.25,44.63 		"/>
		<polygon class="st4" points="10.56,49.94 14.46,54.18 10.34,56.61 7.79,53.84 		"/>
		<polygon class="st4" points="17.37,56.17 22.44,58.91 19.34,62.55 16.03,60.75 		"/>
		<polygon class="st4" points="25.84,59.84 31.53,60.79 29.77,65.24 26.06,64.62 		"/>
		<polygon class="st4" points="35.04,60.57 40.73,59.62 40.51,64.4 36.8,65.02 		"/>
		<polygon class="st4" points="43.98,58.27 49.05,55.52 50.4,60.11 47.09,61.9 		"/>
		<polygon class="st4" points="51.69,53.19 55.6,48.95 58.36,52.85 55.81,55.62 		"/>
		<polygon class="st4" points="57.33,45.88 59.65,40.6 63.53,43.4 62.02,46.85 		"/>
		<polygon class="st4" points="60.3,37.14 60.77,31.39 65.35,32.78 65.04,36.53 		"/>
		<polygon class="st4" points="60.26,27.91 58.85,22.32 63.62,22.14 64.55,25.79 		"/>
		<polygon class="st4" points="57.23,19.19 54.08,14.36 58.54,12.64 60.6,15.79 		"/>
		<polygon class="st4" points="51.53,11.93 46.98,8.39 50.64,5.31 53.62,7.62 		"/>
		<polygon class="st4" points="43.78,6.91 38.33,5.04 40.8,0.94 44.36,2.16 		"/>
	</g>
	<circle class="st5" cx="51.17" cy="-74.36" r="5.05"/>
	<path class="st6" d="M2.63-46.12C-6.85-37.59-7.62-23,0.91-13.52s23.13,10.25,32.6,1.72s10.25-23.13,1.72-32.6
		S12.11-54.65,2.63-46.12z M30.07-15.62C22.7-9,11.36-9.6,4.73-16.96s-6.03-18.71,1.34-25.33s18.71-6.03,25.33,1.34
		S37.43-22.25,30.07-15.62z"/>
	<path class="st6" d="M7.19-41.06c-6.68,6.01-7.23,16.3-1.22,22.98c6.01,6.68,16.3,7.23,22.98,1.22s7.23-16.3,1.22-22.98
		C24.16-46.52,13.87-47.07,7.19-41.06z M28.23-17.67c-6.24,5.61-15.84,5.1-21.45-1.13c-5.61-6.24-5.1-15.84,1.13-21.45
		c6.24-5.61,15.84-5.1,21.45,1.13C34.97-32.88,34.47-23.28,28.23-17.67z"/>
	<polygon class="st6" points="5.11,-48.05 0.82,-44.2 -1.56,-48.34 1.23,-50.86 	"/>
	<polygon class="st6" points="-1.9,-40.54 -4.08,-35.2 -8.03,-37.91 -6.6,-41.39 	"/>
	<polygon class="st6" points="-4.94,-30.73 -4.6,-24.97 -9.33,-25.69 -9.55,-29.45 	"/>
	<polygon class="st6" points="-3.43,-20.57 -0.63,-15.53 -5.2,-14.13 -7.03,-17.42 	"/>
	<polygon class="st6" points="2.34,-12.07 7.05,-8.75 3.54,-5.5 0.46,-7.67 	"/>
	<polygon class="st6" points="11.22,-6.92 16.91,-5.97 15.16,-1.52 11.44,-2.14 	"/>
	<polygon class="st6" points="21.47,-6.13 27,-7.74 27.35,-2.97 23.74,-1.92 	"/>
	<polygon class="st6" points="31.04,-9.86 35.32,-13.72 37.71,-9.57 34.91,-7.05 	"/>
	<polygon class="st6" points="38.04,-17.38 40.23,-22.71 44.17,-20.01 42.74,-16.53 	"/>
	<polygon class="st6" points="41.08,-27.19 40.74,-32.94 45.47,-32.22 45.69,-28.46 	"/>
	<polygon class="st6" points="39.57,-37.35 36.77,-42.38 41.34,-43.79 43.17,-40.5 	"/>
	<polygon class="st6" points="33.8,-45.85 29.09,-49.17 32.6,-52.41 35.68,-50.25 	"/>
	<polygon class="st6" points="24.92,-51 19.23,-51.95 20.99,-56.4 24.7,-55.78 	"/>
	<polygon class="st6" points="14.68,-51.79 9.14,-50.17 8.79,-54.94 12.41,-56 	"/>
	<path class="st6" d="M58.1-139.09c-7.86,10.04-6.09,24.55,3.95,32.41s24.55,6.09,32.41-3.95s6.09-24.55-3.95-32.41
		S65.96-149.13,58.1-139.09z M90.41-113.8c-6.11,7.8-17.38,9.17-25.18,3.07s-9.17-17.38-3.07-25.18s17.38-9.17,25.18-3.07
		C95.14-132.88,96.51-121.6,90.41-113.8z"/>
	<path class="st6" d="M63.47-134.89c-5.54,7.08-4.3,17.31,2.78,22.85c7.08,5.54,17.31,4.3,22.85-2.78
		c5.54-7.08,4.3-17.31-2.78-22.85C79.24-143.22,69.01-141.97,63.47-134.89z M88.24-115.5c-5.17,6.61-14.72,7.77-21.32,2.6
		c-6.61-5.17-7.77-14.72-2.6-21.32c5.17-6.61,14.72-7.77,21.32-2.6C92.25-131.65,93.41-122.1,88.24-115.5z"/>
	<polygon class="st6" points="60.21,-141.43 56.65,-136.89 53.59,-140.56 55.91,-143.52 	"/>
	<polygon class="st6" points="54.61,-132.81 53.38,-127.18 49.03,-129.16 49.83,-132.83 	"/>
	<polygon class="st6" points="53.31,-122.62 54.64,-117.01 49.86,-116.9 48.99,-120.57 	"/>
	<polygon class="st6" points="56.56,-112.88 60.19,-108.4 55.93,-106.23 53.56,-109.15 	"/>
	<polygon class="st6" points="63.71,-105.5 68.93,-103.05 66.03,-99.24 62.63,-100.85 	"/>
	<polygon class="st6" points="73.36,-101.97 79.12,-102.02 78.16,-97.33 74.4,-97.3 	"/>
	<polygon class="st6" points="83.58,-102.96 88.75,-105.51 89.92,-100.88 86.54,-99.21 	"/>
	<polygon class="st6" points="92.36,-108.3 95.91,-112.84 98.98,-109.17 96.66,-106.2 	"/>
	<polygon class="st6" points="97.95,-116.91 99.18,-122.55 103.54,-120.57 102.73,-116.89 	"/>
	<polygon class="st6" points="99.25,-127.1 97.92,-132.71 102.7,-132.82 103.57,-129.16 	"/>
	<polygon class="st6" points="96.01,-136.85 92.37,-141.32 96.63,-143.49 99.01,-140.57 	"/>
	<polygon class="st6" points="88.85,-144.22 83.64,-146.67 86.53,-150.48 89.94,-148.88 	"/>
	<polygon class="st6" points="79.21,-147.76 73.45,-147.71 74.4,-152.39 78.17,-152.42 	"/>
	<polygon class="st6" points="68.99,-146.76 63.82,-144.21 62.65,-148.85 66.02,-150.51 	"/>
	<g class="st2">
		<path class="st7" d="M111.62-97.88h-1.87v-0.67h4.54v0.67h-1.88v5.47h-0.8V-97.88z"/>
		<path class="st7" d="M120.09-95.11c-0.04-0.86-0.1-1.89-0.09-2.65h-0.03c-0.21,0.72-0.46,1.48-0.77,2.33l-1.08,2.98h-0.6
			l-0.99-2.92c-0.29-0.87-0.54-1.66-0.71-2.39h-0.02c-0.02,0.77-0.06,1.79-0.12,2.71l-0.16,2.63h-0.76l0.43-6.14h1.01l1.05,2.97
			c0.25,0.76,0.46,1.43,0.62,2.07h0.03c0.15-0.62,0.37-1.29,0.65-2.07l1.09-2.97h1.01l0.38,6.14h-0.77L120.09-95.11z"/>
	</g>
</g>
</svg>
