<svg width="157" height="33" viewBox="0 0 157 33" fill="none" xmlns="http://www.w3.org/2000/svg">
<path d="M141.198 7.375H145.574V14.1025H146.79L151.991 7.375H156.757L150.193 15.3216L157 24.3708H151.895L146.79 17.183H145.574V24.3708H141.198V7.375V7.375Z" fill="white"/>
<path d="M0 19.8283H1.94484C2.15755 19.2769 2.32975 18.6446 2.4665 17.9213C2.60324 17.203 2.71467 16.4342 2.7957 15.6147C2.87674 14.8003 2.93751 13.9556 2.97803 13.0906C3.01855 12.2257 3.03881 11.3809 3.03881 10.5514V6.42383H15.5334V19.8283H17.2604V26.576H13.467V23.4196H3.79345V26.576H0V19.8283V19.8283ZM11.1575 19.8283V10.0152H7.12094V11.037C7.12094 13.0097 7.04497 14.7143 6.88796 16.1458C6.73602 17.5773 6.48786 18.8065 6.14852 19.8232H11.1575V19.8283Z" fill="white"/>
<path d="M19.5698 6.42383H27.7138C29.7093 6.42383 31.1578 6.81837 32.0644 7.60241C32.971 8.38644 33.4268 9.50938 33.4268 10.9662C33.4268 11.8412 33.1989 12.5899 32.7481 13.212C32.2923 13.8342 31.6795 14.2844 30.8995 14.5575C31.9023 14.7852 32.6975 15.2404 33.2799 15.9283C33.8624 16.6163 34.1561 17.5116 34.1561 18.6092C34.1561 20.0964 33.6648 21.2699 32.6873 22.1298C31.7048 22.9897 30.1297 23.4146 27.9569 23.4146H19.5698V6.42383ZM26.6452 13.1969C27.5872 13.1969 28.2203 13.0451 28.5546 12.7467C28.8888 12.4482 29.0509 12.0233 29.0509 11.472C29.0509 10.9055 28.8838 10.4806 28.5546 10.1973C28.2203 9.91404 27.5923 9.77241 26.6705 9.77241H23.9457V13.1969H26.6452ZM26.9845 20.0711C28.038 20.0711 28.7673 19.9143 29.1725 19.5956C29.5776 19.282 29.7802 18.7913 29.7802 18.1287C29.7802 17.4661 29.5726 16.9703 29.1623 16.6466C28.747 16.3229 28.0076 16.161 26.9389 16.161H23.9508V20.0711H26.9845Z" fill="white"/>
<path d="M36.709 6.42383H41.0849V16.6213L47.7702 6.42383H51.7815V23.4196H47.4056V13.2222L40.7202 23.4196H36.709V6.42383Z" fill="white"/>
<path d="M55.1851 6.42383H66.611V10.0152H59.5609V23.4196H55.1851V6.42383V6.42383Z" fill="white"/>
<path d="M72.6883 23.7333C72.511 23.7333 72.3337 23.7231 72.1666 23.708C71.9944 23.6928 71.8475 23.6675 71.7159 23.6372V20.0205C71.8475 20.0357 71.9742 20.0559 72.1058 20.0711C72.2375 20.0862 72.3894 20.0964 72.5667 20.0964C72.9212 20.0964 73.215 20.0761 73.4429 20.0357C73.6708 19.9952 73.8582 19.9244 74 19.8283C74.1469 19.7322 74.2684 19.6006 74.3647 19.4388C74.4609 19.2769 74.5521 19.0746 74.6331 18.8318L67.8262 6.42383H72.2527L76.7755 15.0431L80.3258 6.42383H84.6055L78.9178 19.2921C78.543 20.1166 78.1784 20.8096 77.8239 21.366C77.4693 21.9224 77.054 22.3827 76.583 22.7368C76.112 23.0959 75.565 23.3488 74.942 23.5006C74.309 23.6574 73.5594 23.7333 72.6883 23.7333Z" fill="white"/>
<path d="M86.5454 6.42383H90.9213V12.8833H97.242V6.42383H101.618V23.4196H97.242V16.4746H90.9213V23.4196H86.5454V6.42383Z" fill="white"/>
<!---->
<path d="M121.38 2.12891C113.428 2.12891 106.986 8.56809 106.986 16.5045C106.986 24.441 113.433 30.8802 121.38 30.8802C129.331 30.8802 135.773 24.441 135.773 16.5045C135.773 8.56809 129.331 2.12891 121.38 2.12891ZM121.38 28.4269C114.785 28.4269 109.442 23.0904 109.442 16.5045C109.442 9.91865 114.785 4.58217 121.38 4.58217C127.974 4.58217 133.317 9.91865 133.317 16.5045C133.317 23.0904 127.969 28.4269 121.38 28.4269Z" fill="white"/>
<path d="M121.38 5.61914C115.363 5.61914 110.481 10.4902 110.481 16.5045C110.481 22.5137 115.358 27.3899 121.38 27.3899C127.397 27.3899 132.279 22.5188 132.279 16.5045C132.274 10.4953 127.397 5.61914 121.38 5.61914ZM121.38 26.7778C115.698 26.7778 111.094 22.1799 111.094 16.5045C111.094 10.8291 115.698 6.23119 121.38 6.23119C127.063 6.23119 131.666 10.8291 131.666 16.5045C131.666 22.1799 127.058 26.7778 121.38 26.7778Z" fill="white"/>
<path d="M122.499 2.36745H119.577L120.083 0H121.992L122.499 2.36745Z" fill="white"/>
<path d="M117.84 2.77134L115.08 3.71732L114.786 1.31443L116.589 0.697266L117.84 2.77134Z" fill="white"/>
<path d="M113.565 4.66354L111.26 6.45431L110.207 4.27402L111.711 3.10547L113.565 4.66354Z" fill="white"/>
<path d="M110.137 7.83585L108.541 10.279L106.834 8.56425L107.878 6.96582L110.137 7.83585Z" fill="white"/>
<path d="M107.928 11.9524L107.209 14.7798L105.042 13.7075L105.507 11.8613L107.928 11.9524Z" fill="white"/>
<path d="M107.179 16.5605L107.417 19.4691L105.016 19.1555L104.859 17.2586L107.179 16.5605Z" fill="white"/>
<path d="M107.964 21.1641L109.139 23.8349L106.763 24.3205L105.999 22.5754L107.964 21.1641Z" fill="white"/>
<path d="M110.202 25.2607L112.182 27.4054L110.096 28.6345L108.804 27.2334L110.202 25.2607Z" fill="white"/>
<path d="M113.656 28.4131L116.224 29.799L114.654 31.6401L112.973 30.7347L113.656 28.4131Z" fill="white"/>
<path d="M117.946 30.2686L120.823 30.7491L119.937 33.0001L118.053 32.6864L117.946 30.2686Z" fill="white"/>
<path d="M122.605 30.6378L125.487 30.1572L125.376 32.5751L123.497 32.8887L122.605 30.6378Z" fill="white"/>
<path d="M127.134 29.4751L129.702 28.084L130.385 30.4058L128.709 31.3163L127.134 29.4751Z" fill="white"/>
<path d="M131.039 26.9044L133.014 24.7598L134.417 26.7324L133.125 28.1335L131.039 26.9044Z" fill="white"/>
<path d="M133.895 23.2076L135.07 20.5371L137.035 21.9533L136.265 23.6982L133.895 23.2076Z" fill="white"/>
<path d="M135.394 18.7864L135.637 15.8828L137.957 16.5809L137.8 18.4778L135.394 18.7864Z" fill="white"/>
<path d="M135.379 14.1167L134.66 11.2893L137.081 11.1982L137.552 13.0444L135.379 14.1167Z" fill="white"/>
<path d="M133.844 9.70579L132.244 7.26261L134.508 6.39258L135.551 7.99101L133.844 9.70579Z" fill="white"/>
<path d="M130.958 6.03401L128.653 4.24344L130.507 2.68555L132.011 3.85397L130.958 6.03401Z" fill="white"/>
<path d="M127.032 3.49564L124.272 2.54966L125.518 0.475586L127.321 1.09275L127.032 3.49564Z" fill="white"/>
</svg>
