<svg width="35" height="35" viewBox="0 0 35 35" fill="none" xmlns="http://www.w3.org/2000/svg">
<path d="M15.3484 19.6516C13.7705 18.0737 13.3402 16.3524 13.1968 15.7787C13.1968 15.6352 13.1968 15.3483 13.3402 15.3483L14.6312 14.0574C14.7746 13.9139 14.9181 13.627 14.7746 13.3401L12.623 9.89751C12.4795 9.61063 12.1927 9.61063 11.9058 9.75407L8.46315 11.3319C8.31971 11.3319 8.17627 11.6188 8.17627 11.9057C8.31971 13.627 9.03693 17.7869 13.1968 21.8033C17.2132 25.8196 21.373 26.6803 23.0943 26.8237C23.3812 26.8237 23.5246 26.6803 23.6681 26.5369L25.2459 23.0942C25.3894 22.8074 25.2459 22.5205 25.1025 22.377L21.8033 20.2254C21.5164 20.0819 21.2296 20.0819 21.0861 20.3688L19.7951 21.6598C19.6517 21.8033 19.5082 21.8033 19.3648 21.8033C18.6476 21.6598 16.9263 21.3729 15.3484 19.6516Z" fill="#55A5B9"/>
<path d="M23.0943 17.5C22.8074 17.5 22.5205 17.2131 22.5205 16.9262C22.5205 14.4877 20.5123 12.4795 18.0738 12.4795C17.7869 12.4795 17.5 12.1926 17.5 11.9057C17.5 11.6189 17.7869 11.332 18.0738 11.332C21.2295 11.332 23.668 13.9139 23.668 16.9262C23.668 17.2131 23.5246 17.5 23.0943 17.5Z" fill="#55A5B9"/>
<path d="M26.1066 17.5C25.8197 17.5 25.5328 17.2131 25.5328 16.9262C25.5328 12.7664 22.2336 9.46718 18.0738 9.46718C17.7869 9.46718 17.5 9.1803 17.5 8.89341C17.5 8.60653 17.7869 8.31964 18.0738 8.31964C22.8074 8.31964 26.6803 12.1926 26.6803 16.9262C26.6803 17.0696 26.6803 17.2131 26.5369 17.3565C26.3934 17.5 26.25 17.5 26.1066 17.5Z" fill="#55A5B9"/>
<path d="M17.5 0C7.7459 0 0 7.7459 0 17.5C0 27.2541 7.88934 35 17.5 35C27.2541 35 35 27.1107 35 17.5C35 7.7459 27.2541 0 17.5 0ZM17.5 34.2828C8.17623 34.2828 0.717213 26.8238 0.717213 17.5C0.717213 8.17623 8.17623 0.717213 17.5 0.717213C26.8238 0.717213 34.2828 8.17623 34.2828 17.5C34.2828 26.8238 26.8238 34.2828 17.5 34.2828Z" fill="#20343E"/>
</svg>
