<?xml version="1.0" encoding="utf-8"?>
<!-- Generator: Adobe Illustrator 23.1.0, SVG Export Plug-In . SVG Version: 6.00 Build 0)  -->
<svg version="1.1" xmlns="http://www.w3.org/2000/svg" xmlns:xlink="http://www.w3.org/1999/xlink" x="0px" y="0px"
	 viewBox="0 0 54.58 55.12" style="enable-background:new 0 0 54.58 55.12;" xml:space="preserve">
<style type="text/css">
	.st0{display:none;}
	.st1{display:inline;fill:#52ACC2;}
	.st2{fill:#55A5B9;}
	.st3{fill:#FFFFFF;}
	.st4{fill:#20343E;}
	.st5{fill:none;}
</style>
<g id="фон2" class="st0">
	<path class="st1" d="M66.49,142.14h-326c-6.6,0-12-5.4-12-12v-51c0-6.6,5.4-12,12-12h326c6.6,0,12,5.4,12,12v51
		C78.49,136.74,73.09,142.14,66.49,142.14z"/>
</g>
<g id="фон1">
	<g id="XMLID_1_">
		<g>
			<rect x="-271.51" y="67.14" class="st2" width="350" height="75"/>
		</g>
		<g>
		</g>
	</g>
</g>
<g id="Слой_1">
	<g>
		<path class="st3" d="M-208.03,110.47h2.99c0.32-0.85,0.59-1.83,0.8-2.93c0.21-1.11,0.38-2.29,0.5-3.55
			c0.12-1.26,0.22-2.55,0.28-3.89c0.06-1.33,0.09-2.64,0.09-3.91v-6.35h19.21v20.63h2.65v10.39h-5.83v-4.86h-14.88v4.86h-5.83
			V110.47z M-190.87,110.47v-15.1h-6.2v1.57c0,3.04-0.12,5.66-0.36,7.87c-0.24,2.21-0.62,4.09-1.14,5.66H-190.87z"/>
		<path class="st3" d="M-177.94,89.84h12.52c3.07,0,5.29,0.6,6.69,1.81c1.4,1.21,2.09,2.93,2.09,5.18c0,1.35-0.35,2.5-1.05,3.46
			c-0.7,0.96-1.64,1.65-2.84,2.07c1.54,0.35,2.77,1.05,3.66,2.11c0.9,1.06,1.35,2.44,1.35,4.13c0,2.29-0.75,4.1-2.26,5.42
			c-1.51,1.32-3.93,1.98-7.27,1.98h-12.9V89.84z M-167.06,100.27c1.44,0,2.42-0.23,2.93-0.69c0.51-0.46,0.77-1.11,0.77-1.96
			c0-0.87-0.26-1.53-0.77-1.96c-0.51-0.44-1.48-0.65-2.9-0.65h-4.19v5.27H-167.06z M-166.54,110.85c1.62,0,2.74-0.24,3.36-0.73
			c0.62-0.49,0.93-1.24,0.93-2.26s-0.32-1.78-0.95-2.28c-0.64-0.5-1.78-0.75-3.42-0.75h-4.6v6.02H-166.54z"/>
		<path class="st3" d="M-151.59,89.84h6.73v15.7l10.28-15.7h6.17v26.17h-6.73v-15.7l-10.28,15.7h-6.17V89.84z"/>
		<path class="st3" d="M-123.18,89.84h17.57v5.53h-10.84v20.63h-6.73V89.84z"/>
		<path class="st3" d="M-96.27,116.49c-0.27,0-0.54-0.01-0.8-0.04c-0.26-0.03-0.49-0.06-0.69-0.11v-5.57c0.2,0.03,0.4,0.05,0.6,0.08
			c0.2,0.03,0.44,0.04,0.71,0.04c0.55,0,1-0.03,1.35-0.09c0.35-0.06,0.64-0.17,0.86-0.32c0.22-0.15,0.41-0.35,0.56-0.6
			c0.15-0.25,0.29-0.56,0.41-0.93l-10.47-19.1h6.8l6.95,13.27l5.46-13.27h6.58l-8.75,19.81c-0.57,1.27-1.13,2.34-1.68,3.2
			c-0.55,0.86-1.18,1.56-1.91,2.11c-0.72,0.55-1.56,0.94-2.52,1.18C-93.77,116.37-94.92,116.49-96.27,116.49z"/>
		<path class="st3" d="M-74.96,89.84h6.73v9.94h9.72v-9.94h6.73v26.17h-6.73v-10.69h-9.72v10.69h-6.73V89.84z"/>
	</g>
	<g>
		<path class="st4" d="M27.29,86.6h8.64v13.3h2.4L48.6,86.6h9.41l-12.96,15.71l13.44,17.88H48.41l-10.08-14.21h-2.4v14.21h-8.64
			V86.6z"/>
	</g>
	<path class="st4" d="M-11.84,76.23c-15.7,0-28.42,12.73-28.42,28.42s12.73,28.42,28.42,28.42s28.42-12.73,28.42-28.42
		S3.86,76.23-11.84,76.23z M-11.84,128.22c-13.02,0-23.57-10.55-23.57-23.57c0-13.02,10.55-23.57,23.57-23.57
		c13.02,0,23.57,10.55,23.57,23.57C11.73,117.67,1.17,128.22-11.84,128.22z"/>
	<path class="st4" d="M-11.84,83.14c-11.88,0-21.52,9.63-21.52,21.52c0,11.88,9.63,21.52,21.52,21.52
		c11.88,0,21.52-9.63,21.52-21.52C9.67,92.77,0.04,83.14-11.84,83.14z M-11.84,124.96c-11.22,0-20.31-9.09-20.31-20.31
		s9.09-20.31,20.31-20.31s20.31,9.09,20.31,20.31S-0.63,124.96-11.84,124.96z"/>
	<polygon class="st4" points="-9.64,76.7 -15.4,76.7 -14.4,72.02 -10.64,72.02 	"/>
	<polygon class="st4" points="-18.83,77.5 -24.28,79.37 -24.86,74.62 -21.3,73.4 	"/>
	<polygon class="st4" points="-27.27,81.24 -31.82,84.78 -33.9,80.47 -30.93,78.16 	"/>
	<polygon class="st4" points="-34.04,87.51 -37.19,92.34 -40.56,88.95 -38.5,85.79 	"/>
	<polygon class="st4" points="-38.4,95.65 -39.82,101.24 -44.1,99.12 -43.18,95.47 	"/>
	<polygon class="st4" points="-39.88,104.76 -39.41,110.51 -44.15,109.9 -44.46,106.14 	"/>
	<polygon class="st4" points="-38.33,113.86 -36.01,119.14 -40.7,120.1 -42.21,116.65 	"/>
	<polygon class="st4" points="-33.91,121.96 -30,126.2 -34.12,128.63 -36.67,125.86 	"/>
	<polygon class="st4" points="-27.09,128.19 -22.02,130.93 -25.13,134.57 -28.44,132.78 	"/>
	<polygon class="st4" points="-18.62,131.86 -12.94,132.81 -14.69,137.26 -18.41,136.64 	"/>
	<polygon class="st4" points="-9.42,132.59 -3.73,131.64 -3.95,136.42 -7.66,137.04 	"/>
	<polygon class="st4" points="-0.48,130.29 4.59,127.55 5.94,132.13 2.63,133.93 	"/>
	<polygon class="st4" points="7.23,125.21 11.13,120.97 13.9,124.87 11.35,127.64 	"/>
	<polygon class="st4" points="12.87,117.9 15.19,112.62 19.07,115.42 17.55,118.87 	"/>
	<polygon class="st4" points="15.83,109.16 16.31,103.42 20.89,104.8 20.58,108.55 	"/>
	<polygon class="st4" points="15.8,99.93 14.38,94.34 19.16,94.16 20.09,97.81 	"/>
	<polygon class="st4" points="12.77,91.21 9.61,86.39 14.08,84.66 16.14,87.82 	"/>
	<polygon class="st4" points="7.07,83.95 2.52,80.41 6.18,77.33 9.15,79.64 	"/>
	<polygon class="st4" points="-0.68,78.93 -6.13,77.06 -3.67,72.96 -0.11,74.18 	"/>
	<circle class="st5" cx="-11.84" cy="104.65" r="5.05"/>
	<path class="st3" d="M-60.38,132.89c-9.48,8.53-10.25,23.13-1.72,32.6c8.53,9.48,23.13,10.25,32.6,1.72
		c9.48-8.53,10.25-23.13,1.72-32.6S-50.9,124.36-60.38,132.89z M-32.94,163.39c-7.37,6.63-18.71,6.03-25.33-1.34
		c-6.63-7.37-6.03-18.71,1.34-25.33c7.37-6.63,18.71-6.03,25.33,1.34S-25.58,156.76-32.94,163.39z"/>
	<path class="st3" d="M-55.82,137.95c-6.68,6.01-7.23,16.3-1.22,22.98c6.01,6.68,16.3,7.23,22.98,1.22s7.23-16.3,1.22-22.98
		C-38.85,132.49-49.14,131.94-55.82,137.95z M-34.78,161.35c-6.24,5.61-15.84,5.1-21.45-1.13c-5.61-6.24-5.1-15.84,1.13-21.45
		c6.24-5.61,15.84-5.1,21.45,1.13C-28.04,146.13-28.54,155.74-34.78,161.35z"/>
	<polygon class="st3" points="-57.9,130.96 -62.19,134.81 -64.57,130.67 -61.78,128.15 	"/>
	<polygon class="st3" points="-64.91,138.47 -67.09,143.81 -71.04,141.11 -69.61,137.62 	"/>
	<polygon class="st3" points="-67.95,148.28 -67.61,154.04 -72.34,153.32 -72.56,149.56 	"/>
	<polygon class="st3" points="-66.44,158.44 -63.64,163.48 -68.21,164.88 -70.04,161.59 	"/>
	<polygon class="st3" points="-60.67,166.94 -55.96,170.26 -59.47,173.51 -62.55,171.34 	"/>
	<polygon class="st3" points="-51.79,172.1 -46.1,173.04 -47.85,177.49 -51.57,176.87 	"/>
	<polygon class="st3" points="-41.54,172.88 -36.01,171.27 -35.66,176.04 -39.27,177.09 	"/>
	<polygon class="st3" points="-31.97,169.15 -27.69,165.29 -25.3,169.44 -28.1,171.96 	"/>
	<polygon class="st3" points="-24.97,161.63 -22.78,156.3 -18.84,159 -20.27,162.48 	"/>
	<polygon class="st3" points="-21.93,151.82 -22.27,146.07 -17.54,146.79 -17.32,150.55 	"/>
	<polygon class="st3" points="-23.44,141.66 -26.24,136.63 -21.67,135.23 -19.84,138.51 	"/>
	<polygon class="st3" points="-29.21,133.17 -33.92,129.85 -30.41,126.6 -27.33,128.77 	"/>
	<polygon class="st3" points="-38.09,128.01 -43.78,127.07 -42.02,122.62 -38.31,123.23 	"/>
	<polygon class="st3" points="-48.34,127.22 -53.87,128.84 -54.22,124.07 -50.6,123.01 	"/>
	<g>
		<path class="st3" d="M9.11,13.33c-7.86,10.04-6.09,24.55,3.95,32.41s24.55,6.09,32.41-3.95s6.09-24.55-3.95-32.41
			S16.97,3.29,9.11,13.33z M41.41,38.62c-6.11,7.8-17.38,9.17-25.18,3.07S7.06,24.3,13.17,16.5s17.38-9.17,25.18-3.07
			S47.52,30.82,41.41,38.62z"/>
		<path class="st3" d="M14.48,17.53c-5.54,7.08-4.3,17.31,2.78,22.85c7.08,5.54,17.31,4.3,22.85-2.78s4.3-17.31-2.78-22.85
			C30.25,9.21,20.02,10.45,14.48,17.53z M39.25,36.93c-5.17,6.61-14.72,7.77-21.32,2.6c-6.61-5.17-7.77-14.72-2.6-21.32
			c5.17-6.61,14.72-7.77,21.32-2.6C43.26,20.77,44.42,30.32,39.25,36.93z"/>
		<polygon class="st3" points="11.22,11 7.66,15.54 4.6,11.87 6.92,8.9 		"/>
		<polygon class="st3" points="5.62,19.61 4.39,25.25 0.03,23.27 0.84,19.59 		"/>
		<polygon class="st3" points="4.32,29.8 5.65,35.41 0.87,35.52 0,31.86 		"/>
		<polygon class="st3" points="7.57,39.55 11.2,44.02 6.94,46.19 4.57,43.27 		"/>
		<polygon class="st3" points="14.72,46.92 19.94,49.37 17.04,53.18 13.63,51.58 		"/>
		<polygon class="st3" points="24.36,50.46 30.13,50.41 29.17,55.09 25.41,55.12 		"/>
		<polygon class="st3" points="34.59,49.46 39.76,46.91 40.93,51.55 37.55,53.21 		"/>
		<polygon class="st3" points="43.37,44.13 46.92,39.59 49.98,43.26 47.66,46.22 		"/>
		<polygon class="st3" points="48.96,35.51 50.19,29.88 54.55,31.86 53.74,35.53 		"/>
		<polygon class="st3" points="50.26,25.32 48.93,19.71 53.71,19.6 54.58,23.27 		"/>
		<polygon class="st3" points="47.02,15.58 43.38,11.1 47.64,8.93 50.01,11.85 		"/>
		<polygon class="st3" points="39.86,8.2 34.65,5.75 37.54,1.94 40.95,3.55 		"/>
		<polygon class="st3" points="30.22,4.67 24.45,4.72 25.41,0.03 29.18,0 		"/>
		<polygon class="st3" points="19.99,5.66 14.82,8.21 13.65,3.58 17.03,1.91 		"/>
	</g>
	<g>
		<path class="st4" d="M48.61,81.14h-1.87v-0.67h4.54v0.67h-1.88v5.47h-0.8V81.14z"/>
		<path class="st4" d="M57.08,83.91c-0.04-0.86-0.1-1.89-0.09-2.65h-0.03c-0.21,0.72-0.46,1.48-0.77,2.33l-1.08,2.98h-0.6
			l-0.99-2.92c-0.29-0.87-0.54-1.66-0.71-2.39h-0.02c-0.02,0.77-0.06,1.79-0.12,2.71l-0.16,2.63h-0.76l0.43-6.14h1.01l1.05,2.97
			c0.25,0.76,0.46,1.43,0.62,2.07h0.03c0.15-0.62,0.37-1.29,0.65-2.07l1.09-2.97h1.01l0.38,6.14h-0.77L57.08,83.91z"/>
	</g>
</g>
</svg>
