<?xml version="1.0" encoding="utf-8"?>
<!-- Generator: Adobe Illustrator 23.1.0, SVG Export Plug-In . SVG Version: 6.00 Build 0)  -->
<svg version="1.1" xmlns="http://www.w3.org/2000/svg" xmlns:xlink="http://www.w3.org/1999/xlink" x="0px" y="0px"
	 viewBox="0 0 350 75" style="enable-background:new 0 0 350 75;" xml:space="preserve">
<style type="text/css">
	.st0{display:none;}
	.st1{display:inline;fill:#52ACC2;}
	.st2{fill:#55A5B9;}
	.st3{fill:#FFFFFF;}
	.st4{fill:#20343E;}
	.st5{display:none;fill:#20343E;}
	.st6{display:none;fill:none;}
	.st7{display:none;fill:#FFFFFF;}
</style>
<g id="фон2" class="st0">
	<path class="st1" d="M338,75H12C5.4,75,0,69.6,0,63V12C0,5.4,5.4,0,12,0h326c6.6,0,12,5.4,12,12v51C350,69.6,344.6,75,338,75z"/>
</g>
<g id="фон1">
	<g id="XMLID_1_">
		<g>
			<rect class="st2" width="350" height="75"/>
		</g>
		<g>
		</g>
	</g>
</g>
<g id="Слой_1">
	<g>
		<path class="st3" d="M20.01,44.08h3.84c0.42-1.09,0.76-2.34,1.03-3.77c0.27-1.42,0.49-2.94,0.65-4.56
			c0.16-1.61,0.28-3.28,0.36-4.99c0.08-1.71,0.12-3.38,0.12-5.02v-8.16h24.67v26.5h3.41v13.34H46.6v-6.24H27.5v6.24h-7.49V44.08z
			 M42.04,44.08V24.68h-7.97v2.02c0,3.9-0.15,7.27-0.46,10.1c-0.3,2.83-0.79,5.26-1.46,7.27H42.04z"/>
		<path class="st3" d="M58.65,17.58h16.08c3.94,0,6.8,0.78,8.59,2.33c1.79,1.55,2.69,3.77,2.69,6.65c0,1.73-0.45,3.21-1.34,4.44
			c-0.9,1.23-2.11,2.12-3.65,2.66c1.98,0.45,3.55,1.35,4.7,2.71c1.15,1.36,1.73,3.13,1.73,5.3c0,2.94-0.97,5.26-2.9,6.96
			c-1.94,1.7-5.05,2.54-9.34,2.54H58.65V17.58z M72.62,30.97c1.86,0,3.11-0.3,3.77-0.89c0.66-0.59,0.98-1.43,0.98-2.52
			c0-1.12-0.33-1.96-0.98-2.52c-0.66-0.56-1.9-0.84-3.72-0.84h-5.38v6.77H72.62z M73.29,44.56c2.08,0,3.52-0.31,4.32-0.94
			c0.8-0.62,1.2-1.59,1.2-2.9s-0.41-2.29-1.22-2.93c-0.82-0.64-2.28-0.96-4.39-0.96h-5.9v7.73H73.29z"/>
		<path class="st3" d="M92.49,17.58h8.64v20.16l13.2-20.16h7.92v33.6h-8.64V31.02l-13.2,20.16h-7.92V17.58z"/>
		<path class="st3" d="M128.97,17.58h22.56v7.1h-13.92v26.5h-8.64V17.58z"/>
		<path class="st3" d="M163.53,51.8c-0.35,0-0.7-0.02-1.03-0.05c-0.34-0.03-0.63-0.08-0.89-0.14v-7.15c0.26,0.03,0.51,0.07,0.77,0.1
			c0.26,0.03,0.56,0.05,0.91,0.05c0.7,0,1.28-0.04,1.73-0.12c0.45-0.08,0.82-0.22,1.1-0.41c0.29-0.19,0.53-0.45,0.72-0.77
			c0.19-0.32,0.37-0.72,0.53-1.2l-13.44-24.53h8.74l8.93,17.04l7.01-17.04h8.45l-11.23,25.44c-0.74,1.63-1.46,3-2.16,4.1
			c-0.7,1.1-1.52,2.01-2.45,2.71c-0.93,0.71-2.01,1.21-3.24,1.51C166.73,51.65,165.25,51.8,163.53,51.8z"/>
		<path class="st3" d="M190.89,17.58h8.64v12.77h12.48V17.58h8.64v33.6h-8.64V37.45h-12.48v13.73h-8.64V17.58z"/>
	</g>
	<g>
		<path class="st4" d="M298.8,19.46h8.64v13.3h2.4l10.27-13.3h9.41l-12.96,15.71L330,53.06h-10.08l-10.08-14.21h-2.4v14.21h-8.64
			V19.46z"/>
	</g>
	<path class="st5" d="M259.67,9.09c-15.7,0-28.42,12.73-28.42,28.42s12.73,28.42,28.42,28.42c15.7,0,28.42-12.73,28.42-28.42
		S275.37,9.09,259.67,9.09z M259.67,61.08c-13.02,0-23.57-10.55-23.57-23.57c0-13.02,10.55-23.57,23.57-23.57
		c13.02,0,23.57,10.55,23.57,23.57C283.24,50.53,272.68,61.08,259.67,61.08z"/>
	<path class="st5" d="M259.67,15.99c-11.88,0-21.52,9.63-21.52,21.52c0,11.88,9.63,21.52,21.52,21.52
		c11.88,0,21.52-9.63,21.52-21.52C281.18,25.63,271.55,15.99,259.67,15.99z M259.67,57.82c-11.22,0-20.31-9.09-20.31-20.31
		s9.09-20.31,20.31-20.31c11.22,0,20.31,9.09,20.31,20.31S270.88,57.82,259.67,57.82z"/>
	<polygon class="st5" points="261.88,9.56 256.11,9.56 257.11,4.88 260.88,4.88 	"/>
	<polygon class="st5" points="252.68,10.36 247.23,12.23 246.65,7.48 250.21,6.26 	"/>
	<polygon class="st5" points="244.24,14.1 239.69,17.64 237.61,13.33 240.58,11.02 	"/>
	<polygon class="st5" points="237.47,20.37 234.32,25.2 230.95,21.81 233.01,18.65 	"/>
	<polygon class="st5" points="233.11,28.51 231.69,34.1 227.41,31.98 228.33,28.33 	"/>
	<polygon class="st5" points="231.63,37.62 232.1,43.37 227.36,42.75 227.05,39 	"/>
	<polygon class="st5" points="233.18,46.72 235.5,52 230.81,52.96 229.3,49.51 	"/>
	<polygon class="st5" points="237.6,54.82 241.51,59.06 237.39,61.49 234.84,58.72 	"/>
	<polygon class="st5" points="244.42,61.05 249.49,63.79 246.39,67.43 243.07,65.64 	"/>
	<polygon class="st5" points="252.89,64.72 258.57,65.67 256.82,70.12 253.1,69.5 	"/>
	<polygon class="st5" points="262.09,65.45 267.78,64.5 267.56,69.28 263.85,69.9 	"/>
	<polygon class="st5" points="271.03,63.15 276.1,60.4 277.45,64.99 274.14,66.79 	"/>
	<polygon class="st5" points="278.74,58.07 282.64,53.83 285.41,57.73 282.86,60.5 	"/>
	<polygon class="st5" points="284.38,50.76 286.7,45.48 290.58,48.28 289.06,51.73 	"/>
	<polygon class="st5" points="287.34,42.02 287.82,36.28 292.4,37.66 292.09,41.41 	"/>
	<polygon class="st5" points="287.31,32.79 285.89,27.2 290.67,27.02 291.6,30.67 	"/>
	<polygon class="st5" points="284.28,24.07 281.12,19.24 285.59,17.52 287.65,20.68 	"/>
	<polygon class="st5" points="278.58,16.81 274.03,13.27 277.69,10.19 280.66,12.5 	"/>
	<polygon class="st5" points="270.83,11.79 265.38,9.92 267.84,5.82 271.4,7.04 	"/>
	<circle class="st6" cx="259.67" cy="37.51" r="5.05"/>
	<path class="st7" d="M211.13,65.75c-9.48,8.53-10.25,23.13-1.72,32.6s23.13,10.25,32.6,1.72c9.48-8.53,10.25-23.13,1.72-32.6
		C235.21,57.99,220.61,57.22,211.13,65.75z M238.57,96.25c-7.37,6.63-18.71,6.03-25.33-1.34c-6.63-7.37-6.03-18.71,1.34-25.33
		c7.37-6.63,18.71-6.03,25.33,1.34C246.53,78.28,245.93,89.62,238.57,96.25z"/>
	<path class="st7" d="M215.69,70.81c-6.68,6.01-7.23,16.3-1.22,22.98c6.01,6.68,16.3,7.23,22.98,1.22
		c6.68-6.01,7.23-16.3,1.22-22.98C232.66,65.35,222.37,64.8,215.69,70.81z M236.73,94.21c-6.24,5.61-15.84,5.1-21.45-1.13
		c-5.61-6.24-5.1-15.84,1.13-21.45c6.24-5.61,15.84-5.1,21.45,1.13C243.47,78.99,242.97,88.6,236.73,94.21z"/>
	<polygon class="st7" points="213.61,63.82 209.32,67.67 206.94,63.53 209.73,61.01 	"/>
	<polygon class="st7" points="206.6,71.33 204.42,76.67 200.47,73.97 201.9,70.48 	"/>
	<polygon class="st7" points="203.56,81.14 203.9,86.9 199.17,86.18 198.95,82.42 	"/>
	<polygon class="st7" points="205.07,91.3 207.87,96.34 203.3,97.74 201.47,94.45 	"/>
	<polygon class="st7" points="210.84,99.8 215.55,103.12 212.04,106.37 208.96,104.2 	"/>
	<polygon class="st7" points="219.72,104.96 225.41,105.9 223.66,110.35 219.94,109.73 	"/>
	<polygon class="st7" points="229.97,105.74 235.5,104.13 235.85,108.9 232.24,109.95 	"/>
	<polygon class="st7" points="239.54,102.01 243.82,98.15 246.21,102.3 243.41,104.82 	"/>
	<polygon class="st7" points="246.54,94.49 248.73,89.16 252.67,91.86 251.24,95.34 	"/>
	<polygon class="st7" points="249.58,84.68 249.24,78.93 253.97,79.65 254.19,83.41 	"/>
	<polygon class="st7" points="248.07,74.52 245.27,69.49 249.84,68.09 251.67,71.37 	"/>
	<polygon class="st7" points="242.3,66.02 237.59,62.7 241.1,59.46 244.18,61.63 	"/>
	<polygon class="st7" points="233.42,60.87 227.73,59.92 229.49,55.48 233.2,56.09 	"/>
	<polygon class="st7" points="223.18,60.08 217.64,61.7 217.29,56.93 220.91,55.87 	"/>
	<path class="st7" d="M266.6-27.22c-7.86,10.04-6.09,24.55,3.95,32.41s24.55,6.09,32.41-3.95s6.09-24.55-3.95-32.41
		S274.46-37.26,266.6-27.22z M298.91-1.93c-6.11,7.8-17.38,9.17-25.18,3.07c-7.8-6.11-9.17-17.38-3.07-25.18
		c6.11-7.8,17.38-9.17,25.18-3.07S305.01-9.73,298.91-1.93z"/>
	<path class="st7" d="M271.97-23.02c-5.54,7.08-4.3,17.31,2.78,22.85c7.08,5.54,17.31,4.3,22.85-2.78
		c5.54-7.08,4.3-17.31-2.78-22.85C287.74-31.35,277.51-30.1,271.97-23.02z M296.74-3.63c-5.17,6.61-14.72,7.77-21.32,2.6
		c-6.61-5.17-7.77-14.72-2.6-21.32c5.17-6.61,14.72-7.77,21.32-2.6C300.75-19.78,301.91-10.23,296.74-3.63z"/>
	<polygon class="st7" points="268.71,-29.55 265.15,-25.01 262.09,-28.68 264.41,-31.65 	"/>
	<polygon class="st7" points="263.11,-20.94 261.88,-15.31 257.53,-17.28 258.33,-20.96 	"/>
	<polygon class="st7" points="261.81,-10.75 263.14,-5.14 258.36,-5.03 257.49,-8.7 	"/>
	<polygon class="st7" points="265.06,-1 268.69,3.47 264.43,5.64 262.06,2.72 	"/>
	<polygon class="st7" points="272.21,6.37 277.43,8.82 274.53,12.63 271.13,11.02 	"/>
	<polygon class="st7" points="281.86,9.9 287.62,9.85 286.66,14.54 282.9,14.57 	"/>
	<polygon class="st7" points="292.08,8.91 297.25,6.36 298.42,11 295.04,12.66 	"/>
	<polygon class="st7" points="300.86,3.57 304.41,-0.97 307.48,2.7 305.16,5.67 	"/>
	<polygon class="st7" points="306.45,-5.04 307.68,-10.67 312.04,-8.7 311.23,-5.02 	"/>
	<polygon class="st7" points="307.75,-15.23 306.42,-20.84 311.2,-20.95 312.07,-17.29 	"/>
	<polygon class="st7" points="304.51,-24.98 300.87,-29.45 305.13,-31.62 307.51,-28.7 	"/>
	<polygon class="st7" points="297.35,-32.35 292.14,-34.8 295.03,-38.61 298.44,-37 	"/>
	<polygon class="st7" points="287.71,-35.89 281.95,-35.83 282.9,-40.52 286.67,-40.55 	"/>
	<polygon class="st7" points="277.49,-34.89 272.32,-32.34 271.15,-36.98 274.52,-38.64 	"/>
	<g>
		<path class="st4" d="M320.12,14h-1.87v-0.67h4.54V14h-1.88v5.47h-0.8V14z"/>
		<path class="st4" d="M328.59,16.77c-0.04-0.86-0.1-1.89-0.09-2.65h-0.03c-0.21,0.72-0.46,1.48-0.77,2.33l-1.08,2.98h-0.6
			l-0.99-2.92c-0.29-0.87-0.54-1.66-0.71-2.39h-0.02c-0.02,0.77-0.06,1.79-0.12,2.71L324,19.46h-0.76l0.43-6.14h1.01l1.05,2.97
			c0.25,0.76,0.46,1.43,0.62,2.07h0.03c0.15-0.62,0.37-1.29,0.65-2.07l1.09-2.97h1.01l0.38,6.14h-0.77L328.59,16.77z"/>
	</g>
</g>
</svg>
