<svg width="30" height="30" viewBox="0 0 30 30" fill="none" xmlns="http://www.w3.org/2000/svg">
<path d="M15 30C23.2843 30 30 23.2843 30 15C30 6.71573 23.2843 0 15 0C6.71573 0 0 6.71573 0 15C0 23.2843 6.71573 30 15 30Z" fill="url(#paint0_linear)"/>
<path d="M24.1094 8.32585C24.0483 8.79597 23.9588 9.26196 23.8416 9.7213L21.3272 21.602C21.2916 21.8324 21.2156 22.0548 21.1025 22.2587C21.0254 22.4125 20.8964 22.5341 20.7383 22.6021C20.5802 22.6701 20.4032 22.6801 20.2385 22.6302C20.0045 22.5725 19.7853 22.4666 19.5947 22.3192C18.3289 21.3774 17.0587 20.4485 15.7972 19.5024C15.7723 19.4742 15.7412 19.4521 15.7064 19.4378C15.6716 19.4235 15.634 19.4174 15.5964 19.4199C15.5589 19.4224 15.5224 19.4334 15.4898 19.4522C15.4572 19.471 15.4294 19.497 15.4084 19.5283C14.7863 20.1504 14.1512 20.7552 13.5291 21.3687C13.4206 21.4893 13.2871 21.5847 13.1378 21.6481C12.9885 21.7116 12.8271 21.7416 12.665 21.7359C12.5596 21.7444 12.4548 21.7138 12.3704 21.6501C12.286 21.5864 12.2279 21.494 12.2071 21.3903C11.8183 20.172 11.4208 18.958 11.0233 17.7397C10.8894 17.3077 10.7511 16.9145 10.6259 16.4998C10.6102 16.4329 10.576 16.3718 10.527 16.3236C10.4781 16.2755 10.4165 16.2422 10.3494 16.2276C9.11376 15.8474 7.87816 15.4586 6.63824 15.0698C6.47339 15.026 6.31505 14.9606 6.16733 14.8754C6.08446 14.8508 6.01085 14.802 5.95601 14.7352C5.90117 14.6684 5.86763 14.5867 5.85972 14.5006C5.85181 14.4146 5.8699 14.3281 5.91165 14.2524C5.95339 14.1768 6.01687 14.1153 6.09389 14.0761C6.30815 13.8963 6.55439 13.7586 6.8197 13.67L11.8787 11.7173L22.8047 7.50501L22.8911 7.47044C23.5824 7.19395 24.1051 7.55253 24.1094 8.32585ZM12.6823 20.5522C12.7514 20.5176 12.7428 20.4744 12.7471 20.4399C12.8292 19.5499 12.9156 18.6642 12.989 17.7743C12.9924 17.6712 13.0172 17.5699 13.0618 17.477C13.1065 17.384 13.1699 17.3013 13.2483 17.2342C15.6186 15.1058 17.9876 12.9701 20.3551 10.8273C20.5063 10.6934 20.6575 10.5594 20.7871 10.4212C20.8476 10.3607 20.9254 10.2959 20.8779 10.2008C20.8303 10.1058 20.7267 10.1058 20.6316 10.1188C20.4557 10.1489 20.2888 10.2183 20.1434 10.3218C17.2344 12.168 14.3182 14.0099 11.3949 15.8474C11.3604 15.8621 11.3294 15.8838 11.3038 15.9113C11.2783 15.9387 11.2588 15.9711 11.2466 16.0066C11.2343 16.042 11.2297 16.0796 11.2329 16.1169C11.2361 16.1542 11.2472 16.1905 11.2653 16.2233C11.6282 17.3077 11.9781 18.3834 12.3324 19.4764C12.462 19.8307 12.5786 20.1893 12.6823 20.5522Z" fill="#FDFDFD"/>
<defs>
<linearGradient id="paint0_linear" x1="20.9145" y1="1.20968" x2="9.08986" y2="28.7946" gradientUnits="userSpaceOnUse">
<stop stop-color="#6BABDE"/>
<stop offset="1" stop-color="#5894C4"/>
</linearGradient>
</defs>
</svg>
