<svg width="30" height="30" viewBox="0 0 30 30" fill="none" xmlns="http://www.w3.org/2000/svg">
<path d="M15 30C23.2843 30 30 23.2843 30 15C30 6.71573 23.2843 0 15 0C6.71573 0 0 6.71573 0 15C0 23.2843 6.71573 30 15 30Z" fill="#7A519B"/>
<path d="M20.5341 23.8007C19.8471 23.5847 19.5447 23.5155 19.238 23.3946C13.3538 20.9277 9.07237 16.8494 6.68759 10.8615C6.49609 10.4122 6.40847 9.92554 6.43127 9.43771C6.45408 8.94988 6.58671 8.4735 6.81928 8.04407C7.05185 7.61464 7.37836 7.24326 7.77446 6.95761C8.17057 6.67195 8.62605 6.4794 9.10694 6.39431C9.38775 6.33383 9.8457 6.32951 9.97099 6.49368C11.0752 7.80944 12.1036 9.18695 13.0513 10.6195C13.2198 10.8917 12.7576 11.8119 12.3471 12.1403C11.4096 12.8877 11.3319 13.7604 11.954 14.5639C12.8246 15.6958 13.8106 16.7339 14.8961 17.6616C15.8466 18.4695 16.8186 18.5948 17.808 17.3894C18.7973 16.184 19.9076 16.6506 22.5603 18.828C23.6576 19.7267 23.9384 20.6642 22.9923 21.701C22.2201 22.4544 21.3989 23.1558 20.5341 23.8007Z" fill="white"/>
<path d="M23.3307 14.3059L22.8209 15.2131C22.5414 14.8561 22.3211 14.4564 22.1686 14.0294C21.4125 9.72639 19.9221 8.20997 15.5543 7.34592C15.2216 7.2768 14.9495 6.94845 14.6514 6.74108C14.9797 6.56395 15.2994 6.25289 15.6364 6.22697C19.4425 5.94615 23.2875 9.79984 23.3307 14.3059Z" fill="white"/>
<path d="M21.337 13.666L20.6975 14.4004C20.4945 14.0893 20.1489 13.7956 20.11 13.4672C19.8637 11.1472 18.5979 9.85549 16.3124 9.44075C15.9495 9.37594 15.6471 8.96984 15.3145 8.72358C15.7465 8.56374 16.1785 8.22676 16.5717 8.29156C17.8827 8.45711 19.0888 9.0935 19.9655 10.0822C20.8421 11.0709 21.3296 12.3446 21.337 13.666Z" fill="white"/>
<path d="M19.2963 13.0862L18.8643 13.7212C18.6224 13.5139 18.3718 13.3238 18.1515 13.1035C17.6071 12.5634 17.0757 12.0191 16.5487 11.4661C16.324 11.2328 16.1166 10.9779 15.9136 10.7317C16.2117 10.5761 16.5054 10.2996 16.8035 10.2996C18.0089 10.2694 19.2877 11.6087 19.2963 13.0862Z" fill="white"/>
</svg>
